<svg width="48" height="48" viewBox="0 0 48 48" fill="none" xmlns="http://www.w3.org/2000/svg">
<path fill-rule="evenodd" clip-rule="evenodd" d="M34.1213 42.1213C28.5315 47.7112 19.4685 47.7112 13.8787 42.1213L5.87869 34.1213C4.70712 32.9498 4.70712 31.0503 5.87869 29.8787C7.05026 28.7071 8.94976 28.7071 10.1213 29.8787L18.1213 37.8787C21.368 41.1254 26.632 41.1254 29.8787 37.8787C33.1254 34.632 33.1254 29.368 29.8787 26.1213L21.8787 18.1213C20.7071 16.9498 20.7071 15.0503 21.8787 13.8787C23.0503 12.7071 24.9498 12.7071 26.1213 13.8787L34.1213 21.8787C39.7112 27.4685 39.7112 36.5315 34.1213 42.1213Z" fill="url(#paint0_linear)"/>
<path fill-rule="evenodd" clip-rule="evenodd" d="M13.8787 5.87867C19.4685 0.288821 28.5315 0.288818 34.1213 5.87867L42.1213 13.8787C43.2929 15.0502 43.2929 16.9497 42.1213 18.1213C40.9497 19.2929 39.0502 19.2929 37.8787 18.1213L29.8787 10.1213C26.632 6.8746 21.368 6.8746 18.1213 10.1213C14.8746 13.368 14.8746 18.632 18.1213 21.8787L26.1213 29.8787C27.2929 31.0502 27.2929 32.9497 26.1213 34.1213C24.9497 35.2929 23.0502 35.2929 21.8787 34.1213L13.8787 26.1213C8.28882 20.5315 8.28881 11.4685 13.8787 5.87867Z" fill="url(#paint1_linear)"/>
<defs>
<linearGradient id="paint0_linear" x1="38.2737" y1="46.3579" x2="5.05265" y2="13.1368" gradientUnits="userSpaceOnUse">
<stop stop-color="#FF377F"/>
<stop offset="0.410646" stop-color="#C984FF"/>
<stop offset="0.880208" stop-color="#3971FF"/>
<stop offset="1" stop-color="#3971FF" stop-opacity="0"/>
</linearGradient>
<linearGradient id="paint1_linear" x1="9.72631" y1="1.64209" x2="42.9473" y2="34.9895" gradientUnits="userSpaceOnUse">
<stop stop-color="#65E398"/>
<stop offset="0.470529" stop-color="#39C4FF"/>
<stop offset="0.802535" stop-color="#121791"/>
</linearGradient>
</defs>
</svg>
